<svg width="25" height="43" viewBox="0 0 25 43" fill="none" xmlns="http://www.w3.org/2000/svg">
<path fill-rule="evenodd" clip-rule="evenodd" d="M20.5442 20.6584C20.5085 16.9311 23.5895 15.1348 23.7286 15.0497C21.9985 12.5133 19.2993 12.1661 18.338 12.1255C16.0434 11.8951 13.8598 13.4783 12.6948 13.4783C11.5329 13.4783 9.73398 12.1606 7.8324 12.1981C5.32855 12.2329 3.02212 13.6517 1.73299 15.8913C-0.86489 20.402 1.06893 27.0825 3.60237 30.7419C4.83886 32.5288 6.31678 34.5446 8.25475 34.4718C10.1242 34.3985 10.828 33.2662 13.0826 33.2662C15.339 33.2662 15.9727 34.4718 17.95 34.4346C19.956 34.3985 21.2315 32.6095 22.4604 30.8152C23.881 28.7369 24.4659 26.725 24.5 26.6206C24.4568 26.6049 20.5848 25.1183 20.5442 20.6584Z" fill="#111113"/>
<path fill-rule="evenodd" clip-rule="evenodd" d="M16.8362 9.70764C17.8661 8.45937 18.5571 6.72719 18.3678 5C16.8855 5.05889 15.0881 5.98951 14.0263 7.23389C13.0718 8.33813 12.2365 10.1015 12.463 11.7925C14.1166 11.9211 15.8058 10.9535 16.8362 9.70764Z" fill="#111113"/>
</svg>
