<svg width="24" height="25" viewBox="0 0 24 25" fill="none" xmlns="http://www.w3.org/2000/svg">
<g clip-path="url(#clip0_42_68)">
<path d="M23.9873 12.7245C23.9873 11.7413 23.9057 11.0237 23.729 10.2796H12.239V14.7176H18.9834C18.8475 15.8205 18.1132 17.4815 16.4815 18.5976L16.4586 18.7461L20.0915 21.4963L20.3432 21.5209C22.6547 19.4347 23.9873 16.3653 23.9873 12.7245Z" fill="#4285F4"/>
<path d="M12.239 24.4176C15.5432 24.4176 18.3171 23.3545 20.3432 21.5209L16.4815 18.5976C15.4481 19.3018 14.0611 19.7934 12.239 19.7934C9.00285 19.7934 6.25616 17.7074 5.27705 14.824L5.13353 14.8359L1.35598 17.6927L1.30658 17.8269C3.319 21.7334 7.45267 24.4176 12.239 24.4176Z" fill="#34A853"/>
<path d="M5.27717 14.824C5.01882 14.0799 4.86931 13.2826 4.86931 12.4588C4.86931 11.6349 5.01882 10.8377 5.26358 10.0936L5.25674 9.93513L1.43185 7.03241L1.30671 7.09058C0.477293 8.71168 0.00137329 10.5321 0.00137329 12.4588C0.00137329 14.3855 0.477293 16.2058 1.30671 17.8269L5.27717 14.824Z" fill="#FBBC05"/>
<path d="M12.239 5.12403C14.537 5.12403 16.0871 6.09401 16.971 6.90461L20.4247 3.60928C18.3036 1.6826 15.5432 0.5 12.239 0.5C7.45266 0.5 3.319 3.18406 1.30658 7.09056L5.26345 10.0936C6.25616 7.2102 9.00285 5.12403 12.239 5.12403Z" fill="#EB4335"/>
</g>
<defs>
<clipPath id="clip0_42_68">
<rect width="24" height="24" fill="white" transform="translate(0 0.5)"/>
</clipPath>
</defs>
</svg>
